<?xml version="1.0" encoding="utf-8"?>
<!-- Generator: Adobe Illustrator 19.2.1, SVG Export Plug-In . SVG Version: 6.00 Build 0)  -->
<svg version="1.1" id="Layer_1" xmlns="http://www.w3.org/2000/svg" xmlns:xlink="http://www.w3.org/1999/xlink" x="0px" y="0px"
	 viewBox="0 0 114 85" style="enable-background:new 0 0 114 85;" xml:space="preserve">
<style type="text/css">
	.st0{fill:#FFFFFF;stroke:#64C39E;stroke-miterlimit:10;}
	.st1{fill:#64C39E;}
	.st2{font-family:'MyriadPro-Regular';}
	.st3{font-size:12px;}
	.st4{font-family:'MyriadPro-Bold';}
	.st5{font-size:19.8197px;}
	.st6{font-size:6px;}
</style>
<path class="st0" d="M64.4,38.1C76,30,88,20,99.8,12"/>
<path class="st0" d="M15,76.5C27,68,39,59,51.2,49.8"/>
<path class="st0" d="M51.4,37.8C39,29,27,21,14.8,12.8"/>
<path class="st0" d="M101.8,74.2C89,66,77,57,64.6,48.8"/>
<text transform="matrix(1 0 0 1 54 47.75)" class="st1 st2 st3">&amp;</text>
<text transform="matrix(1 0 0 1 22.6069 48.7949)" class="st1 st4 st5">A</text>
<text transform="matrix(1 0 0 1 51.207 27.7056)" class="st1 st4 st5">O</text>
<text transform="matrix(1 0 0 1 80.707 48.7986)" class="st1 st4 st5">D</text>
<text transform="matrix(1 0 0 1 51 65)" class="st1 st2 st6">100%</text>
</svg>
